<?xml version="1.0" encoding="UTF-8"?>
<svg width="1200" height="800" viewBox="0 0 1200 800" fill="none" xmlns="http://www.w3.org/2000/svg" role="img" aria-labelledby="title desc">
  <title id="title">Anti-Mold</title>
  <desc id="desc">Paint shop product artwork for Anti-Mold</desc>
  <defs>
    <linearGradient id="bg" x1="180" y1="90" x2="1060" y2="710" gradientUnits="userSpaceOnUse">
      <stop stop-color="#F0FDFA"/>
      <stop offset="1" stop-color="#FFFFFF"/>
    </linearGradient>
    <linearGradient id="can" x1="280" y1="240" x2="420" y2="658" gradientUnits="userSpaceOnUse">
      <stop stop-color="#FFFFFF"/>
      <stop offset="1" stop-color="#E5E7EB"/>
    </linearGradient>
    <linearGradient id="paint" x1="336" y1="292" x2="336" y2="410" gradientUnits="userSpaceOnUse">
      <stop stop-color="#CCFBF1"/>
      <stop offset="1" stop-color="#0F766E"/>
    </linearGradient>
  </defs>
  <rect width="1200" height="800" fill="url(#bg)"/>
  <circle cx="1046" cy="178" r="128" fill="#CCFBF1" opacity="0.5"/>
  <circle cx="180" cy="690" r="160" fill="#CCFBF1" opacity="0.35"/>
  <rect x="88" y="100" width="1024" height="600" rx="42" fill="#FFFFFF" opacity="0.94"/>
  <rect x="138" y="168" width="548" height="464" rx="28" fill="#F0FDFA"/>
  <path d="M262 668c108-40 222-40 330 0" stroke="#CCFBF1" stroke-width="20" stroke-linecap="round" opacity="0.85"/>
  <rect x="248" y="230" width="176" height="320" rx="26" fill="url(#can)" stroke="#CBD5E1" stroke-width="8"/>
  <rect x="262" y="204" width="148" height="48" rx="20" fill="#E2E8F0"/>
  <path d="M278 240c18-62 100-84 116 0" stroke="#94A3B8" stroke-width="10" stroke-linecap="round"/>
  <rect x="268" y="286" width="136" height="118" rx="18" fill="url(#paint)"/>
  <rect x="268" y="416" width="136" height="88" rx="18" fill="#FFFFFF"/>
  <rect x="290" y="446" width="92" height="12" rx="6" fill="#0F766E" opacity="0.95"/>
  <rect x="290" y="468" width="72" height="10" rx="5" fill="#94A3B8" opacity="0.85"/>
  <circle cx="495" cy="312" r="72" fill="#CCFBF1" opacity="0.9"/>
  <path d="M478 334c10-44 34-72 72-86" stroke="#0F766E" stroke-width="18" stroke-linecap="round"/>
  <path d="M430 382h88" stroke="#0F766E" stroke-width="18" stroke-linecap="round"/>
  <path d="M414 382c12-26 30-39 56-39" stroke="#0F766E" stroke-width="18" stroke-linecap="round"/>
  <rect x="738" y="168" width="312" height="464" rx="28" fill="#F0FDFA"/>
  
        <path d="M972 362c48 63 75 105 75 143 0 47-33 84-75 84s-75-37-75-84c0-38 27-80 75-143Z" fill="#CCFBF1"/>
        <path d="M930 536c22 14 64 14 86 0" stroke="#0F766E" stroke-width="14" stroke-linecap="round"/>
        <circle cx="1018" cy="406" r="18" fill="#ffffff" opacity="0.75"/>
      
  <rect x="738" y="560" width="312" height="72" rx="22" fill="#FFFFFF"/>
  <text x="786" y="605" fill="#0F172A" font-size="30" font-family="Segoe UI, Arial, sans-serif" font-weight="700">Bathroom moisture guard</text>
  <text x="160" y="540" fill="#0F172A" font-size="72" font-family="Segoe UI, Arial, sans-serif" font-weight="800">Anti-Mold</text>
  <text x="160" y="594" fill="#475569" font-size="30" font-family="Segoe UI, Arial, sans-serif" font-weight="600">Steam-safe finish</text>
  <rect x="160" y="130" width="168" height="48" rx="24" fill="#CCFBF1"/>
  <text x="192" y="162" fill="#0F766E" font-size="24" font-family="Segoe UI, Arial, sans-serif" font-weight="700">PAINT SHOP</text>
</svg>